<svg width="165" height="165" viewBox="0 0 165 165" fill="none" xmlns="http://www.w3.org/2000/svg">
<path d="M137.745 27.2036C160.294 39.7109 172.623 43.7515 159.462 72.5059C155.651 80.8223 121.426 135.019 120.959 137.872C120.212 112.816 118.746 85.1739 118.914 60.333C124.378 50.2914 131.748 36.7875 137.745 27.2036Z" fill="#00B4AF" fill-opacity="0.368627"/>
<path d="M27.2325 138C20.2315 134.286 13.621 130.853 7.42899 126.092C-0.469606 120.019 -2.02671 106.786 3.14997 98.6158C14.7373 80.3297 29.6527 45.2913 43.4864 30.0781C44.8595 48.1783 44.7194 67.8663 45.6348 86.1542C45.8496 90.5142 46.8958 111.373 46.6249 114.727L45.5321 106.942C44.7848 107.214 29.0268 134.921 27.2325 138Z" fill="#00B4AF" fill-opacity="0.372549"/>
<path d="M43.4863 30.0781L44.0748 28.3511C47.6523 28.6341 59.4031 36.2958 62.8592 38.5878C70.0703 43.3709 72.1813 51.2707 72.2 59.3565C71.8264 75.2673 73.2182 92.993 73.3957 109.058C73.4424 113.447 73.9094 131.894 74.5726 134.883L74.3951 136.821C72.9099 137.041 72.9286 137.225 71.5462 136.467C60.1784 130.235 51.4073 127.14 46.6248 114.726C46.8957 111.373 45.8495 90.5141 45.6347 86.1541C44.7193 67.8662 44.8594 48.1782 43.4863 30.0781Z" fill="#00B4AF"/>
<path d="M90.7031 27.6328C107.433 36.5713 118.539 39.1632 118.912 60.3325C118.744 85.1735 120.211 112.815 120.958 137.871C109.488 131.764 96.6345 127.361 93.496 113.763C93.5334 87.0237 91.2075 55.2422 90.7031 27.6328Z" fill="#00B4AF"/>
<path d="M72.2001 59.3565C76.0766 51.7284 88.7521 32.1497 90.7044 27.6328C91.2088 55.2422 93.5346 87.0237 93.4973 113.763L92.2082 106.688C88.3878 113.263 79.0283 130.211 74.5727 134.883C73.9095 131.894 73.4425 113.447 73.3958 109.058C73.2183 92.993 71.8265 75.2673 72.2001 59.3565Z" fill="#00B4AF" fill-opacity="0.376471"/>
</svg>
