<svg width="100" height="36" viewBox="0 0 100 36" fill="none" xmlns="http://www.w3.org/2000/svg">
<path d="M18.6659 28.1866L7.44922 16.5957L9.93279 15.5397L19.6761 25.608L18.6659 28.1866Z" fill="#F56E38"/>
<path d="M13.0016 14.2875C14.4919 12.8024 15.3006 12.1202 16.6562 11.1844L24.2649 19.047C23.3303 20.364 22.5999 21.1545 21.0368 22.5908L13.0016 14.2875Z" stroke="#F56E38" stroke-width="2.05036"/>
<path d="M20.0776 8.9874C20.9312 8.53329 22.0152 8.01841 23.1927 7.57369C24.9951 6.89303 26.9157 6.41607 28.5303 6.49756C28.6954 6.50592 28.7529 6.55281 28.7898 6.5916C28.8478 6.65278 28.9406 6.79842 29.003 7.10548C29.1316 7.73818 29.0671 8.71735 28.7986 9.92471C28.3696 11.854 27.4912 14.0507 26.5645 15.6907L20.0776 8.9874Z" stroke="#F56E38" stroke-width="2.05036"/>
<path d="M8.26285 20.5866C8.36394 20.456 8.55736 20.4453 8.67224 20.564L9.86968 21.8014C9.98456 21.9201 9.96753 22.1131 9.83363 22.2098L4.00717 26.4202C3.96516 26.4505 3.90722 26.4454 3.87117 26.4082C3.83512 26.3709 3.83191 26.3128 3.86363 26.2718L8.26285 20.5866Z" fill="#EEEEEE"/>
<path d="M10.5558 22.9558C10.6569 22.8251 10.8503 22.8144 10.9652 22.9332L12.1626 24.1705C12.2775 24.2893 12.2605 24.4822 12.1266 24.579L6.30014 28.7893C6.25813 28.8197 6.20018 28.8146 6.16413 28.7773C6.12808 28.7401 6.12487 28.682 6.1566 28.641L10.5558 22.9558Z" fill="#EEEEEE"/>
<path d="M12.8488 25.3259C12.9499 25.1953 13.1433 25.1846 13.2582 25.3033L14.4556 26.5407C14.5705 26.6594 14.5535 26.8523 14.4196 26.9491L8.59311 31.1594C8.55109 31.1898 8.49315 31.1847 8.4571 31.1474C8.42105 31.1102 8.41784 31.0521 8.44957 31.0111L12.8488 25.3259Z" fill="#EEEEEE"/>
<path d="M42.7717 10.7122C45.4503 10.8734 49.74 11.7595 49.0754 15.5256C49.0553 15.6465 49.015 15.7673 48.9949 15.868C48.5115 17.6201 47.142 18.5264 45.4906 19.0702C45.3496 19.1105 45.2288 19.1508 45.1079 19.1709C43.96 19.3924 43.0335 19.4529 42.1877 19.3924C40.2341 19.2515 38.5827 18.7077 36.4479 17.5194C36.3472 17.459 36.1861 17.3181 36.0249 17.1972C35.9041 17.0764 35.7833 16.9757 35.6624 16.9153C35.5416 16.8347 35.5416 16.7944 35.5416 16.7944C35.5416 16.7944 35.5416 16.734 35.6624 16.6132C35.7631 16.5125 35.884 16.3916 36.0048 16.3111C36.5889 15.8881 37.193 15.4853 37.6361 15.1631C37.6563 15.1631 37.6764 15.143 37.7167 15.143C37.757 15.1631 37.7771 15.1832 37.7972 15.2034C39.3681 16.6132 41.2411 17.2174 43.6377 17.1167C45.3496 17.0562 47.001 15.7472 46.3566 14.2367C46.1955 13.8742 45.9135 13.5922 45.5711 13.4714C44.7655 13.1894 43.7988 13.0082 42.9328 12.9679C42.3287 12.9276 41.5633 12.8269 40.9592 12.7464C40.6973 12.7061 40.4355 12.6658 40.1737 12.6255C39.2876 12.5047 38.6834 12.404 38.059 12.1019C36.9111 11.538 36.2465 10.4706 36.1659 9.10108C36.1055 7.63089 36.9514 6.7246 37.6563 6.20097C38.5223 5.59678 39.3077 5.23427 40.1536 5.05301C43.2551 4.3884 45.8128 5.17385 47.1622 6.12041C47.3837 6.28153 47.5851 6.46279 47.8066 6.6239C47.9879 6.78502 48.1893 6.94614 48.431 7.12739C48.5317 7.18781 48.5921 7.26837 48.6324 7.34893C48.6122 7.36907 48.5921 7.38921 48.5921 7.40935C48.4712 7.48991 48.3504 7.59061 48.2296 7.67116L48.1087 7.77186C47.7865 7.9934 47.5851 8.17466 47.3233 8.35591L47.0615 8.53717C46.7795 8.73857 46.7795 8.73857 46.5177 8.55731C46.2559 8.39619 45.9739 8.23507 45.7121 8.07396C45.5913 7.9934 45.4503 7.91284 45.3295 7.83228C44.7454 7.48991 44.0002 7.32879 43.3759 7.20795C42.5905 7.04683 41.8654 7.0267 41.1807 7.16767C40.6168 7.26837 39.8112 7.57047 39.3278 8.11424C39.0056 8.49689 38.8445 8.98024 38.9251 9.40317C38.9855 9.72541 39.1667 9.96708 39.4487 10.1483C40.1536 10.531 40.8585 10.5713 41.6036 10.6317L41.7446 10.6518C42.087 10.672 42.4293 10.6921 42.7717 10.7122ZM64.5184 10.4504C64.6191 11.7998 64.6191 17.6604 64.599 19.0098C64.599 19.191 64.5587 19.191 64.5386 19.191C64.1962 19.191 63.874 19.191 63.5719 19.191C63.0281 19.191 62.7059 19.191 62.1621 19.191C62.142 19.1508 62.142 19.0903 62.142 19.0702V19.0098C62.142 18.9292 62.142 18.8285 62.142 18.7278C62.142 18.2848 62.1218 17.7813 62.1621 17.3785C62.2225 16.4722 62.2225 15.5055 62.142 14.3374C62.142 14.1158 62.1218 13.8943 62.1218 13.6526C62.1218 13.5519 62.1218 13.4311 62.1218 13.3103V13.1491L61.9406 13.1089C61.7593 13.0686 59.2016 12.988 58.1745 13.0686C57.7717 13.0887 57.3487 13.0887 56.9258 13.0887C56.7445 13.0887 56.5633 13.0887 56.382 13.0887C56.1806 13.0887 55.9591 13.0887 55.7577 13.0887C55.3549 13.0887 54.9723 13.0887 54.5695 13.0887C54.4889 13.0887 54.3882 13.1089 54.3076 13.1089C54.2674 13.129 54.2271 13.129 54.1667 13.129L53.9854 13.1491V13.3505C53.9653 13.411 53.9653 13.4714 53.9653 13.5318C53.9653 13.6728 53.9451 13.7936 53.9451 13.9145C53.9451 14.3777 53.9653 14.8207 53.9653 15.2839C53.9653 15.8479 53.9854 16.4118 53.9854 16.9958C53.9854 17.2174 53.9854 17.459 53.9653 17.7007C53.9653 18.0834 53.9653 18.466 53.9854 18.8285C53.9854 18.9695 53.9451 19.0501 53.9049 19.1105C53.8243 19.191 53.6833 19.191 53.5826 19.191C53.2201 19.1508 52.8375 19.1709 52.4951 19.1709C52.2333 19.191 51.9714 19.191 51.7096 19.191C51.6492 19.191 51.5687 19.191 51.5082 19.191C51.4881 19.191 51.468 19.191 51.468 19.191C51.4075 19.0903 51.4075 18.9695 51.4075 18.8285V18.748C51.4075 18.4459 51.4075 18.1438 51.4075 17.8215C51.3874 17.4187 51.3874 17.0361 51.3874 16.6534V16.5125C51.3874 15.727 51.3673 14.9214 51.3673 14.136C51.3471 13.5922 51.3471 13.0686 51.327 12.5248C51.3068 11.6588 51.2867 10.7525 51.2867 9.84625C51.2867 8.81912 51.2867 7.77186 51.2867 6.76488C51.2867 6.32181 51.2867 5.89888 51.2867 5.4558C51.2867 5.13357 51.3673 5.13357 51.4478 5.13357C51.5687 5.11343 52.8576 5.11343 53.7035 5.13357H53.7236H53.7437C53.7437 5.13357 53.7639 5.15371 53.7639 5.17385C53.7639 5.21413 53.7639 5.27455 53.7639 5.33497C53.7639 5.37524 53.7639 5.41552 53.7639 5.4558V6.32181C53.7639 7.12739 53.7639 7.95312 53.7639 8.71842C53.784 9.08094 53.784 9.46359 53.8042 9.80597L53.8243 10.1081C53.8243 10.1886 53.8243 10.2692 53.8444 10.3296C53.8444 10.3699 53.8444 10.4102 53.8646 10.4504L53.8847 10.6317L54.066 10.6518C55.4959 10.7525 61.4572 10.6518 61.6989 10.6518H61.9003L61.9204 10.4504C61.9204 10.4102 61.9406 9.28234 61.9607 8.93996C61.9607 8.93996 61.9808 7.792 61.9607 7.32879C61.9607 7.14753 61.9406 6.98642 61.9406 6.80516C61.9406 6.64404 61.9406 6.46279 61.9406 6.30167C61.9204 6.01971 61.9204 5.71762 61.9204 5.41552C61.9204 5.23427 61.9406 5.19399 62.1621 5.15371C62.3031 5.11343 63.4913 5.13357 63.9747 5.15371C64.4177 5.17385 64.4379 5.19399 64.458 5.61692C64.458 5.89888 64.458 6.18083 64.458 6.46279C64.458 6.70446 64.458 6.926 64.458 7.16767C64.458 7.46977 64.458 7.77186 64.458 8.05382C64.4782 8.83926 64.4782 9.64485 64.5184 10.4504ZM70.009 14.2568C70.009 14.6193 69.9687 18.5868 69.9687 18.7882C69.9687 18.8487 69.9687 18.8889 69.9687 18.9292C69.9486 18.9896 69.9486 19.0501 69.9486 19.0903C69.9486 19.1306 69.9285 19.1508 69.9285 19.191C69.5257 19.1709 68.8006 19.1709 68.3374 19.1709C68.0957 19.191 67.8742 19.191 67.6728 19.191H67.6325C67.5923 19.191 67.552 19.1709 67.5117 19.1709C67.411 19.1709 67.411 19.1306 67.411 19.0702C67.411 19.0299 67.411 19.0098 67.411 18.9695C67.411 18.9494 67.411 18.9292 67.411 18.9091C67.411 18.5063 67.411 18.1035 67.411 17.6806C67.4311 16.734 67.3304 12.0012 67.3304 10.6116C67.3304 10.0476 67.3506 9.46359 67.3506 8.89968C67.3304 8.25521 67.3304 7.59061 67.3304 6.94614C67.3304 6.6239 67.3304 6.28153 67.3304 5.93916V5.81832C67.3103 5.67734 67.3103 5.5565 67.3304 5.41552C67.3304 5.23427 67.3909 5.15371 67.5721 5.13357C67.6325 5.13357 67.7131 5.13357 67.7937 5.13357H67.8339C68.0957 5.13357 68.4583 5.13357 68.7402 5.13357C68.9416 5.13357 69.284 5.13357 69.4854 5.13357C69.5659 5.13357 69.6868 5.13357 69.8076 5.13357H69.9486L69.9687 5.15371C69.9889 5.7579 69.9687 6.32181 69.9486 6.86558C69.9285 7.18781 69.9889 13.2901 70.009 14.2568ZM84.5344 6.66418V7.26837C84.5344 7.28851 84.5143 7.34893 84.4941 7.38921C84.474 7.42949 84.4337 7.48991 84.4337 7.57047C84.4337 7.57047 84.4337 7.57047 84.4136 7.57047C84.2525 7.61075 84.0712 7.61075 83.8899 7.61075C81.594 7.61075 79.3384 7.61075 77.2036 7.59061C76.9216 7.59061 76.6397 7.59061 76.3779 7.57047C76.2369 7.57047 76.0959 7.57047 75.9348 7.55033C75.8744 7.55033 75.8139 7.55033 75.7334 7.55033H75.3105C75.3105 7.55033 75.2702 8.91982 75.2903 9.84625C75.2903 10.1081 75.2903 10.3296 75.2903 10.4504C75.2903 10.4504 75.25 10.8129 75.3507 10.8129H76.398C77.0425 10.7928 82.319 10.7525 83.0441 10.7928C83.2052 10.7928 83.2052 10.8129 83.2052 10.9539C83.2253 11.1956 83.2253 11.4373 83.2253 11.6588C83.2253 11.8199 83.2052 11.981 83.2052 12.1422C83.2052 12.4241 83.1851 12.4241 83.2052 12.7262C83.2052 12.9276 83.1649 12.9477 83.0038 12.9679C82.2385 13.0484 76.7605 13.0484 76.4584 13.0484C76.2772 13.0484 76.0959 13.0484 75.9146 13.0484C75.8341 13.0484 75.7334 13.0484 75.6528 13.0686H75.4514L75.4313 13.2498C75.4313 13.3103 75.4112 13.3505 75.4112 13.411C75.4112 13.5117 75.391 13.6728 75.391 13.7936C75.391 14.3172 75.4112 14.9819 75.4112 15.5458C75.4313 16.1701 75.4514 16.7743 75.4514 17.3583C75.4716 17.8215 75.4514 18.2848 75.4514 18.748C75.4514 18.8487 75.4313 18.9494 75.4112 19.0501C75.391 19.1306 75.391 19.1709 75.3709 19.191C75.2299 19.191 75.0486 19.191 74.9077 19.191C74.666 19.1709 74.4445 19.1709 74.2229 19.1709C74.0215 19.1709 73.8403 19.1709 73.6389 19.1709C73.3972 19.191 73.1354 19.191 72.8736 19.191C72.8131 19.191 72.8131 19.1508 72.8131 19.1306C72.793 18.9494 72.793 18.7882 72.793 18.607C72.793 17.8417 72.7729 16.9958 72.793 16.2305C72.793 15.6263 72.793 15.0423 72.793 14.4582C72.793 13.6526 72.793 12.8672 72.793 12.0616C72.793 11.7192 72.793 11.3567 72.793 11.0143C72.793 10.531 72.7729 10.0275 72.793 9.54415C72.793 9.14136 72.8131 8.7587 72.8131 8.37605C72.8333 8.01354 72.8534 7.63089 72.8534 7.24823C72.8534 6.78502 72.8333 6.32181 72.8131 5.8586V5.83846C72.793 5.61692 72.7729 5.33497 72.8736 5.11343C73.1152 5.11343 73.659 5.13357 74.2833 5.13357C76.1563 5.13357 79.2981 5.15371 80.0835 5.11343C81.1107 5.09329 82.017 5.09329 83.0844 5.11343C83.4871 5.11343 83.9101 5.11343 84.3532 5.11343H84.3733H84.3934C84.4337 5.13357 84.5344 5.13357 84.5344 5.33497C84.5344 5.35511 84.5344 5.39539 84.5344 5.43566C84.5344 5.47594 84.5143 5.51622 84.5143 5.57664C84.5344 5.93916 84.5344 6.30167 84.5344 6.66418ZM98.6204 5.29469C98.7412 6.90586 98.6405 12.0213 98.6204 12.7464C98.6002 12.9276 98.6002 13.1089 98.5801 13.2901C98.5398 14.2165 98.5197 15.0221 98.2176 15.9687C97.6537 17.882 95.9216 19.0702 93.6056 19.332C92.9813 19.3924 90.8666 19.5737 89.3158 19.0299C87.9866 18.5264 87.3824 17.9222 86.7782 16.5326C86.2143 15.2034 86.2748 12.9477 86.315 11.4373V11.2963C86.315 11.0143 86.315 10.7525 86.315 10.4706C86.315 10.2289 86.315 9.96708 86.3352 9.72541C86.3352 9.40317 86.3553 9.10108 86.3553 8.77884C86.3755 8.51703 86.3755 8.25521 86.3755 7.97326C86.3956 7.59061 86.3956 7.12739 86.4157 6.66418C86.4157 6.24125 86.4157 5.81832 86.4359 5.4558C86.4359 5.43566 86.4359 5.39539 86.4359 5.37524C86.4359 5.23427 86.4359 5.15371 86.4762 5.07315C86.6977 5.03287 86.9394 5.05301 87.2012 5.07315C87.3422 5.07315 87.4831 5.09329 87.6443 5.09329C87.9463 5.09329 88.3491 5.09329 88.7117 5.09329H89.0137C89.054 5.19399 89.054 5.33497 89.0742 5.49608C89.0742 5.91901 89.054 6.80516 89.0339 7.85242C88.9936 9.98722 88.9332 12.6658 89.0137 13.4512C89.0339 13.6124 89.0339 13.7936 89.054 13.9749C89.0742 14.5791 89.0943 15.2235 89.4971 15.7874C89.9805 16.4722 90.4437 16.6736 91.2291 16.8347C92.4576 17.0965 94.2501 16.9757 95.1765 16.0493C95.8612 15.3444 95.9015 14.3374 95.9418 13.4311C95.9418 13.3304 95.9418 13.2297 95.9418 13.1491C95.9821 12.3234 96.0425 9.94694 96.0425 9.60457C96.0425 8.55731 96.0626 7.44963 96.0626 6.10027C96.0626 5.81832 96.0425 5.41552 96.0022 5.13357C96.0022 5.11343 96.0022 5.09329 96.0022 5.09329C96.4251 5.11343 96.9286 5.09329 97.412 5.07315C97.8349 5.07315 98.2578 5.05301 98.6405 5.07315C98.6405 5.09329 98.6405 5.09329 98.6405 5.09329C98.6204 5.17385 98.6204 5.25441 98.6204 5.29469Z" fill="#EEEEEE"/>
<path d="M38.8386 30.5439C38.7428 30.5439 38.5407 30.5546 38.4023 30.5546C38.3704 30.5439 38.3385 30.5227 38.3172 30.4907C38.1363 30.1183 37.9554 29.7245 37.8277 29.3627C37.6893 28.9796 36.689 26.7875 36.4017 26.0426C36.3698 25.9681 36.3485 25.8936 36.3059 25.8191C36.0399 25.2019 35.7632 24.5953 35.4972 23.9781C35.412 23.8079 35.3056 23.4673 35.2418 23.2864C35.1992 23.18 35.2524 23.1162 35.3482 23.1162C35.4227 23.1055 35.4972 23.1055 35.561 23.1055C35.8696 23.1162 36.274 23.1162 36.572 23.1268C36.9231 23.1268 36.8912 23.1268 36.9976 23.4141C37.1466 23.7972 37.3169 24.3399 37.4765 24.723C37.9554 25.883 38.381 26.9365 38.945 28.0538C38.9876 28.139 39.1047 28.5646 39.1047 28.5646C39.1047 28.5646 39.7325 26.8513 39.7751 26.7449C40.0092 26.1703 40.1901 25.6595 40.4029 25.0848C40.5732 24.6379 40.669 24.191 40.8286 23.744C40.8711 23.6376 40.9669 23.3716 40.9988 23.2651C41.0414 23.1481 41.1159 23.1162 41.233 23.1162C41.5948 23.0949 42.1056 23.1374 42.4674 23.1162C42.4887 23.1162 42.6164 23.1162 42.6376 23.1162C42.8079 23.1055 42.7228 23.2864 42.6696 23.4461C42.5632 23.7227 42.4461 23.9994 42.3397 24.2867C42.1801 24.723 42.0204 25.17 41.8502 25.6169C41.7225 25.9574 41.5735 26.2767 41.4352 26.6172C41.3287 26.8939 41.201 27.1599 41.0946 27.4366C40.8605 28.0432 40.1688 29.7139 40.0518 29.948C39.9879 30.0864 39.9134 30.2247 39.8602 30.3737C39.807 30.4907 39.7644 30.5333 39.6367 30.5439C39.5942 30.5439 39.5516 30.5439 39.509 30.5439C39.243 30.5439 39.1047 30.5546 38.8386 30.5439ZM45.5946 27.3515C45.5201 27.3515 45.4349 27.3621 45.3605 27.3728C45.3072 27.6495 45.3392 28.7881 45.4137 29.1605C45.4349 29.1712 45.4562 29.1818 45.4669 29.1818C46.0841 29.2031 46.6268 29.1925 47.2334 29.1818C47.7761 29.1712 48.255 29.1818 48.787 29.1818C49.1488 29.1818 49.5107 29.235 49.8725 29.1925C49.9789 29.1712 50.0321 29.2138 50.0321 29.3202C50.0534 29.6075 50.0214 29.7245 50.0321 30.0119C50.0427 30.0651 50.0321 30.1502 50.0321 30.1928C50.0002 30.3843 50.1066 30.5439 49.9257 30.5439C49.649 30.5439 45.1051 30.5333 44.69 30.5439C44.4453 30.5546 44.2005 30.5439 43.9877 30.5439C43.8813 30.4801 43.8919 30.4056 43.8919 30.3311C43.8813 30.0225 43.8919 29.7139 43.8813 29.4053C43.8706 28.7136 43.8387 27.9687 43.8174 27.2876C43.8068 27.0429 43.8174 26.8088 43.8174 26.5747C43.8174 26.5321 43.8281 26.4895 43.8281 26.447C43.8281 25.8298 43.8281 25.2125 43.8281 24.5953C43.8174 24.191 43.7962 23.7972 43.7962 23.3928C43.7855 23.2013 43.8813 23.1162 44.0728 23.1162C44.4027 23.1055 44.7326 23.1055 45.0625 23.1055C45.85 23.1055 48.6168 23.1162 49.2233 23.1268C49.3936 23.1268 49.5 23.1055 49.6703 23.1055C49.7235 23.1162 49.8193 23.1055 49.8937 23.1055C49.947 23.1055 49.9789 23.1374 49.9895 23.1907C50.0002 23.3609 49.9789 23.893 50.0002 23.9994C50.0321 24.1697 50.0002 24.2761 49.9576 24.4357C49.8618 24.5102 49.766 24.4996 49.6703 24.4996C49.3297 24.4889 48.9892 24.4783 48.6593 24.4889C47.8293 24.5102 47.0099 24.4889 46.1799 24.4996C45.9351 24.4996 45.6371 24.5102 45.3817 24.5102C45.3711 24.5421 45.3392 24.5741 45.3392 24.5953C45.3392 25.0529 45.3392 25.5637 45.3392 25.9894C45.3924 26.0745 45.4562 26.0532 45.5201 26.0532C46.0309 26.0426 48.4146 26.0851 49.0637 26.0426C49.1063 26.0426 49.1488 26.0426 49.1914 26.0532C49.2659 26.0745 49.3191 26.1277 49.3297 26.2022C49.3404 26.2341 49.3404 26.2661 49.3404 26.298C49.3404 26.5747 49.3404 26.6385 49.3404 26.9258C49.3404 26.9578 49.3404 27.0003 49.3297 27.0322C49.3085 27.2131 49.2553 27.3302 49.0956 27.3302C48.6061 27.3408 48.1273 27.3408 47.6377 27.3408C46.9567 27.3515 46.2756 27.3515 45.5946 27.3515ZM58.3522 30.4588C58.3522 30.4907 58.3309 30.512 58.3203 30.5546C58.1181 30.5546 57.2561 30.5546 57.022 30.5546C56.9049 30.5546 56.8198 30.4482 56.7453 30.3418C56.1494 29.5224 55.5641 28.6923 54.9362 27.9048C54.5532 27.426 53.34 25.7659 52.9782 25.2551C52.9463 25.2125 52.8612 25.2338 52.8718 25.2977C52.8718 25.6914 52.9144 26.415 52.9144 26.4895C52.925 27.1919 52.925 27.8836 52.9356 28.5753C52.9356 28.7987 52.9463 29.682 52.9356 29.8416C52.925 30.0438 52.925 30.2566 52.9144 30.4695C52.9144 30.5014 52.8931 30.5333 52.8505 30.5439C52.8292 30.5439 52.8079 30.5546 52.7973 30.5546C52.4142 30.5546 52.0311 30.5546 51.648 30.5546C51.6055 30.5546 51.5522 30.5546 51.499 30.5439C51.4458 30.5333 51.4033 30.5014 51.3926 30.4482C51.382 30.3524 51.382 30.2566 51.3926 30.1715C51.4352 29.9374 51.4352 26.298 51.4352 25.4147C51.4352 25.1593 51.4033 24.8933 51.3926 24.6379C51.382 24.2654 51.382 23.893 51.382 23.5205C51.3713 23.4673 51.382 23.4248 51.3926 23.3822C51.4245 23.2439 51.3713 23.1055 51.5097 23.1162C51.9885 23.1162 52.4355 23.1162 52.925 23.1162C53.0953 23.1055 53.1698 23.1055 53.2762 23.2439C53.4039 23.4141 54.0956 24.308 54.2233 24.5208C54.6489 25.1913 56.2664 27.4685 56.5963 27.8623C56.6708 27.9581 56.7347 28.1815 56.8624 28.2454C56.8943 28.0751 56.8624 27.0961 56.8517 26.8194C56.8411 26.4044 56.8304 25.7659 56.8304 25.3615C56.8198 24.9891 56.8411 23.6163 56.8411 23.3503C56.8411 23.2971 56.8411 23.2332 56.8411 23.1587C56.873 23.1481 56.9156 23.1162 56.9475 23.1162C57.3412 23.1162 57.735 23.1162 58.1287 23.1162C58.2458 23.1162 58.2883 23.1587 58.3203 23.2758C58.3415 23.3609 58.2883 24.8188 58.299 25.436C58.3096 25.883 58.3096 26.3405 58.3096 26.7875C58.3203 27.1919 58.3203 29.0222 58.3415 29.4159C58.3735 29.7458 58.3522 30.1289 58.3522 30.4588ZM66.6595 23.329C66.6701 23.478 66.6275 24.191 66.6701 24.4144C66.6807 24.457 66.6382 24.5102 66.585 24.5102C66.4786 24.5208 64.8291 24.4996 64.6482 24.5102C64.446 24.5208 64.2119 24.5208 63.9991 24.5315C63.9246 24.5315 63.8607 24.5953 63.8607 24.6698C63.8501 25.2125 63.8182 27.3941 63.8182 28.3944C63.8075 28.7455 63.8288 29.0967 63.8288 29.4479C63.8288 29.7565 63.8288 30.097 63.8182 30.4056C63.8182 30.512 63.765 30.5546 63.6586 30.5546C63.318 30.5439 62.7753 30.5652 62.4135 30.5546C62.3177 30.5439 62.2432 30.4695 62.2432 30.3737C62.2326 29.6181 62.2858 27.0748 62.2858 26.3193C62.2752 25.883 62.2752 25.3402 62.2539 24.9039C62.2539 24.8188 62.2645 24.7124 62.2645 24.6166C62.2645 24.5847 62.2326 24.5528 62.19 24.5528C61.7963 24.5528 60.1575 24.5315 59.6573 24.5315C59.6148 24.5315 59.5722 24.5208 59.5403 24.5102C59.4764 24.4889 59.4339 24.4464 59.4232 24.3825C59.4126 24.3187 59.4232 23.2013 59.4339 23.1374C59.4871 23.1374 59.5509 23.1162 59.6041 23.1162C59.8489 23.1268 65.3293 23.1268 65.7869 23.1268C65.9678 23.1162 66.1487 23.1162 66.3402 23.1162C66.4041 23.1162 66.4573 23.1162 66.5211 23.1268C66.5956 23.1374 66.6595 23.2545 66.6595 23.329ZM67.6851 23.4248C67.6958 23.329 67.6851 23.2226 67.7596 23.1162C67.9724 23.0842 68.2598 23.1162 68.4832 23.1162C68.6961 23.1162 69.026 23.1162 69.2494 23.1162C69.3133 23.2226 69.3239 23.3396 69.3239 23.4461C69.3239 24.1058 69.2388 26.7981 69.3026 27.3941C69.3346 27.7346 69.3452 28.107 69.5261 28.405C69.7283 28.7668 70.122 29.0648 70.5158 29.1499C71.0159 29.2563 71.6118 29.235 72.0588 28.9371C72.6015 28.5753 72.5909 27.9474 72.6228 27.3621C72.6441 26.9365 72.6654 25.7127 72.6654 25.5531C72.676 24.9571 72.676 24.3506 72.676 23.7547C72.676 23.6163 72.676 23.4141 72.6547 23.2758C72.6441 23.18 72.6866 23.1162 72.7718 23.1162C73.1761 23.1374 73.7401 23.0949 74.1658 23.1162C74.2084 23.1162 74.2297 23.1481 74.2297 23.1907C74.2297 23.2439 74.219 23.3077 74.219 23.3396C74.2722 24.1058 74.2297 26.8088 74.219 27.1706C74.1871 27.7771 74.1871 28.256 74.0168 28.8519C73.6763 29.9693 72.6015 30.5227 71.4948 30.6504C70.8137 30.7249 70.3668 30.6504 69.707 30.4801C68.1427 30.097 67.6532 28.7242 67.6851 27.3515C67.6958 27.0855 67.6319 25.9362 67.6426 25.6595C67.6426 25.3615 67.6532 25.0636 67.6638 24.7656C67.6745 24.3931 67.6851 23.7972 67.6851 23.4248ZM83.4651 30.3843C83.5076 30.4695 83.4544 30.5439 83.3587 30.5439C83.199 30.5439 82.9756 30.5546 82.8266 30.5439C82.4967 30.5439 82.4541 30.5546 82.1455 30.5439C82.103 30.5439 82.0285 30.5439 81.9859 30.5439C81.8582 30.5439 81.7518 30.5014 81.6773 30.4056C81.5177 30.1821 81.3581 29.9161 81.1984 29.7033C80.7941 29.1499 80.4535 28.6072 80.0598 28.0538C79.9321 27.8942 79.815 27.7239 79.698 27.5643C79.3681 27.5537 79.0488 27.5324 78.7615 27.543C78.6445 27.543 77.8676 27.543 77.4952 27.543C77.3994 27.543 77.3143 27.6282 77.3143 27.7346C77.3143 28.2773 77.3249 29.8842 77.3356 30.0332C77.3462 30.1396 77.3568 30.2566 77.3568 30.3737C77.3462 30.512 77.3568 30.5439 77.2504 30.5439C77.1653 30.5546 76.165 30.5333 76.0479 30.5439C75.867 30.5652 75.8032 30.5014 75.8032 30.3205C75.8138 29.8203 75.8032 26.2554 75.8138 25.6914C75.8138 25.4147 75.8032 25.1487 75.7819 24.8827C75.75 24.5953 75.7713 24.308 75.7606 24.0207C75.7606 23.7972 75.75 23.5631 75.7606 23.3396C75.7606 23.1907 75.7925 23.1055 75.9522 23.1055C76.0586 23.1162 76.8673 23.1162 77.2398 23.1162C77.6867 23.1374 79.9427 23.1162 80.6983 23.1162C81.2091 23.1162 81.7518 23.2332 82.1562 23.5631C82.6138 23.9249 82.7947 24.5741 82.8585 25.1274C82.9117 25.585 82.7947 25.9681 82.635 26.3831C82.4222 26.9578 81.9753 27.2557 81.4432 27.4153C81.656 27.7452 81.9008 28.0538 82.1349 28.3731C82.4222 28.7455 82.6031 29.1393 82.8692 29.5224C83.0288 29.7565 83.199 29.9906 83.3587 30.2247C83.3906 30.2779 83.4332 30.3311 83.4651 30.3843ZM79.1553 26.1809C79.4107 26.1809 79.6661 26.1916 79.9215 26.1809C80.1981 26.1703 80.4748 26.2235 80.7515 26.1703C81.1133 26.1171 81.3155 25.9681 81.4432 25.6382C81.507 25.4679 81.4858 25.1274 81.4006 24.9678C81.2516 24.6805 81.0388 24.5847 80.6983 24.5315C80.6025 24.5102 80.4961 24.4889 80.4003 24.4889C80.1556 24.4783 79.9002 24.4676 79.6554 24.4676C79.0701 24.4676 78.4848 24.4783 77.8996 24.4783C77.7506 24.4783 77.6122 24.4783 77.4633 24.4889C77.4101 24.4889 77.3462 24.5102 77.2824 24.5208C77.2824 25.0955 77.293 25.585 77.3036 26.1596C77.3675 26.1703 77.3994 26.1809 77.4313 26.1809C77.7612 26.1916 78.0805 26.2022 78.4104 26.2128C78.4848 26.2128 78.5593 26.2128 78.6338 26.2022C78.8041 26.2022 78.9744 26.1809 79.1553 26.1809ZM86.4127 27.3515C86.3382 27.3515 86.2531 27.3621 86.1786 27.3728C86.1254 27.6495 86.1573 28.7881 86.2318 29.1605C86.2531 29.1712 86.2744 29.1818 86.285 29.1818C86.9022 29.2031 87.4449 29.1925 88.0515 29.1818C88.5942 29.1712 89.0731 29.1818 89.6052 29.1818C89.967 29.1818 90.3288 29.235 90.6906 29.1925C90.797 29.1712 90.8502 29.2138 90.8502 29.3202C90.8715 29.6075 90.8396 29.7245 90.8502 30.0119C90.8609 30.0651 90.8502 30.1502 90.8502 30.1928C90.8183 30.3843 90.9247 30.5439 90.7438 30.5439C90.4671 30.5439 85.9232 30.5333 85.5082 30.5439C85.2634 30.5546 85.0187 30.5439 84.8058 30.5439C84.6994 30.4801 84.7101 30.4056 84.7101 30.3311C84.6994 30.0225 84.7101 29.7139 84.6994 29.4053C84.6888 28.7136 84.6569 27.9687 84.6356 27.2876C84.6249 27.0429 84.6356 26.8088 84.6356 26.5747C84.6356 26.5321 84.6462 26.4895 84.6462 26.447C84.6462 25.8298 84.6462 25.2125 84.6462 24.5953C84.6356 24.191 84.6143 23.7972 84.6143 23.3928C84.6036 23.2013 84.6994 23.1162 84.891 23.1162C85.2209 23.1055 85.5507 23.1055 85.8806 23.1055C86.6681 23.1055 89.4349 23.1162 90.0415 23.1268C90.2117 23.1268 90.3181 23.1055 90.4884 23.1055C90.5416 23.1162 90.6374 23.1055 90.7119 23.1055C90.7651 23.1055 90.797 23.1374 90.8076 23.1907C90.8183 23.3609 90.797 23.893 90.8183 23.9994C90.8502 24.1697 90.8183 24.2761 90.7757 24.4357C90.68 24.5102 90.5842 24.4996 90.4884 24.4996C90.1479 24.4889 89.8073 24.4783 89.4775 24.4889C88.6474 24.5102 87.828 24.4889 86.998 24.4996C86.7532 24.4996 86.4553 24.5102 86.1999 24.5102C86.1892 24.5421 86.1573 24.5741 86.1573 24.5953C86.1573 25.0529 86.1573 25.5637 86.1573 25.9894C86.2105 26.0745 86.2744 26.0532 86.3382 26.0532C86.849 26.0426 89.2327 26.0851 89.8818 26.0426C89.9244 26.0426 89.967 26.0426 90.0095 26.0532C90.084 26.0745 90.1372 26.1277 90.1479 26.2022C90.1585 26.2341 90.1585 26.2661 90.1585 26.298C90.1585 26.5747 90.1585 26.6385 90.1585 26.9258C90.1585 26.9578 90.1585 27.0003 90.1479 27.0322C90.1266 27.2131 90.0734 27.3302 89.9138 27.3302C89.4243 27.3408 88.9454 27.3408 88.4559 27.3408C87.7748 27.3515 87.0938 27.3515 86.4127 27.3515ZM92.9769 28.2879C93.0089 28.2667 93.0514 28.2667 93.0834 28.2454C93.1259 28.2667 93.1685 28.2879 93.2004 28.3199C94.0304 29.0754 95.2861 29.4159 96.3716 29.2244C96.6376 29.1712 96.9462 29.0648 97.1803 28.9264C97.34 28.8307 97.4464 28.6923 97.5209 28.5327C97.6486 28.2241 97.3506 27.7239 97.0633 27.6282C96.6695 27.4792 96.18 27.3834 95.7437 27.3621C95.2968 27.3408 94.8392 27.3089 94.3923 27.2451C93.9772 27.1919 93.5729 27.0961 93.2004 26.9152C92.5513 26.5853 92.2107 25.9894 92.1788 25.2764C92.1363 24.606 92.4555 24.0633 92.9876 23.6908C93.392 23.4035 93.8176 23.1907 94.3071 23.0842C95.4671 22.8288 96.9569 22.9246 97.9785 23.6482C98.2126 23.8185 98.3935 23.9888 98.6276 24.159C98.6914 24.2016 98.7446 24.2548 98.7766 24.3399C98.7872 24.3612 98.7872 24.4038 98.7659 24.4251C98.7553 24.4464 98.734 24.4676 98.7234 24.4783C98.6382 24.5528 98.2232 24.9465 97.9997 25.1168C97.8082 25.2658 97.7656 25.2658 97.5847 25.1381C97.3932 25.021 97.1697 24.8401 96.9782 24.7124C96.7015 24.5421 96.2865 24.4144 95.9566 24.3506C95.6054 24.2761 95.1691 24.3187 94.8179 24.3825C94.52 24.4357 94.0943 24.5953 93.8815 24.8401C93.658 25.0955 93.6367 25.5105 93.9666 25.7021C94.3178 25.9042 94.7541 25.9149 95.1478 25.9468C96.1694 26.0319 97.1271 26.0532 98.0529 26.5534C98.7766 26.9365 99.1171 27.6601 99.0532 28.4688C99.0426 28.6604 98.9894 28.8307 98.8936 29.0009C98.6914 29.3521 98.5531 29.6607 98.2339 29.9267C98.17 29.9799 98.0955 30.0332 98.0104 30.0757C97.7124 30.2353 97.4038 30.395 97.0739 30.5014C97.0101 30.5227 96.893 30.5546 96.8185 30.5652C96.3397 30.6504 95.8501 30.7036 95.3606 30.6716C94.2326 30.5865 93.3388 30.2353 92.3704 29.6926C92.2533 29.6181 92.0724 29.4479 91.966 29.3734C91.8064 29.267 91.8064 29.1818 91.9447 29.0435C91.9979 28.9903 92.0618 28.9264 92.1256 28.8839C92.4129 28.6817 92.6896 28.4901 92.9769 28.2879Z" fill="#EEEEEE"/>
</svg>
