<svg width="61" height="61" viewBox="0 0 61 61" fill="none" xmlns="http://www.w3.org/2000/svg">
<path d="M33 10.1704C37.7678 10.1935 42.5359 10.1693 47.3033 10.0979C50.1348 10.0546 54.2878 9.85267 57 10.1986V32.7053C56.1495 32.9623 52.8944 33.194 52.0627 32.7492C51.4635 31.0733 51.6817 16.8447 51.8662 14.684C46.1022 14.9394 38.6312 14.298 33.0866 15.097L33 10.1704Z" fill="#F48010"/>
<path d="M12.8363 29.5966C15.6772 27.3803 17.5058 25.6827 21.5837 26.0502C24.4871 26.3119 27.3664 28.4063 29.1272 30.6089L29.2531 30.7682C32.8039 23.6879 45.3256 25.0599 47.2606 32.588C48.7337 38.3185 47.4617 45.0673 47.9654 50.9459C46.1695 50.7851 41.9899 50.8276 40.1524 51C40.2984 45.9482 42.5785 27.5803 32.0778 33.8403C29.5761 35.3317 30.0486 48.2184 30.3779 50.9877C28.3641 50.7524 24.6954 50.8276 22.64 50.9714C22.7616 47.5019 23.662 36.4822 21.4433 34.1102C20.9722 33.6063 20.3469 33.1068 19.7751 32.7157C15.7437 32.4538 13.1983 33.0457 12.8843 37.7639C12.7447 39.8615 12.9817 42.0029 12.9232 44.1047C12.9681 46.0699 12.7318 48.9263 13.0598 50.7934C11.3879 50.7801 6.18751 50.9443 5 50.5208V26.7487C5.98111 26.4117 12.1563 25.5801 12.9 27.0732C13.0018 27.2777 12.8604 29.1742 12.8363 29.5966Z" fill="#606060"/>
</svg>
